<svg xmlns="http://www.w3.org/2000/svg" viewBox="0 0 43 37"><defs><style>.cls-1{fill:#d93a30;stroke:#d93a30;stroke-linecap:round;stroke-linejoin:round;stroke-width:3px;}</style></defs><g id="Layer_2" data-name="Layer 2"><g id="Layer_1-2" data-name="Layer 1"><path class="cls-1" d="M38.33,4.83a11,11,0,0,0-8-3.33A10.41,10.41,0,0,0,24,3.57,12.63,12.63,0,0,0,22.48,5a1.35,1.35,0,0,1-2,0A12.63,12.63,0,0,0,19,3.57,10.41,10.41,0,0,0,12.67,1.5a11,11,0,0,0-8,3.33A11.65,11.65,0,0,0,1.5,13c0,3.23,1.26,6.19,4,9.31a83,83,0,0,0,9.93,8.9c1.37,1.12,2.93,2.39,4.55,3.74a2.42,2.42,0,0,0,1.55.56A2.46,2.46,0,0,0,23.05,35c1.62-1.36,3.18-2.63,4.55-3.75a83,83,0,0,0,9.93-8.9c2.71-3.12,4-6.08,4-9.32a11.65,11.65,0,0,0-3.17-8.15Z"/></g></g></svg>