<svg xmlns="http://www.w3.org/2000/svg" xmlns:xlink="http://www.w3.org/1999/xlink" viewBox="0 0 39.56 39.59"><defs><style>.cls-1,.cls-3{fill:none;}.cls-2{clip-path:url(#clip-path);}.cls-3{stroke:#000;stroke-linecap:round;stroke-linejoin:round;stroke-width:4px;}</style><clipPath id="clip-path" transform="translate(-0.22 -0.2)"><rect class="cls-1" width="40" height="40"/></clipPath></defs><g id="Layer_2" data-name="Layer 2"><g id="Layer_1-2" data-name="Layer 1"><g class="cls-2"><path class="cls-3" d="M37.78,8.7a6.55,6.55,0,1,1-6.55-6.5A6.52,6.52,0,0,1,37.78,8.7Z" transform="translate(-0.22 -0.2)"/><path class="cls-3" d="M15.32,20.17a6.55,6.55,0,1,1-6.55-6.49A6.52,6.52,0,0,1,15.32,20.17Z" transform="translate(-0.22 -0.2)"/><path class="cls-3" d="M37.78,31.3a6.55,6.55,0,1,1-6.55-6.49A6.52,6.52,0,0,1,37.78,31.3Z" transform="translate(-0.22 -0.2)"/><line class="cls-3" x1="14.4" y1="22.87" x2="25.15" y2="28.2"/><line class="cls-3" x1="24.96" y1="10.99" x2="14.6" y2="17.47"/></g></g></g></svg>