<svg xmlns="http://www.w3.org/2000/svg" viewBox="0 0 13.32 24.8"><defs><style>.cls-1{fill:#fff;}</style></defs><g id="Layer_2" data-name="Layer 2"><g id="Layer_1-2" data-name="Layer 1"><g id="레이어_2" data-name="레이어 2"><g id="레이어_2-2" data-name="레이어 2-2"><path class="cls-1" d="M.3,24.51h0a1,1,0,0,1,0-1.41L11.61,11.78a1,1,0,0,1,1.41,0h0a1,1,0,0,1,0,1.42L1.71,24.51A1,1,0,0,1,.3,24.51Z"/><path class="cls-1" d="M.3,24.51h0a1,1,0,0,1,0-1.41L11.61,11.78a1,1,0,0,1,1.41,0h0a1,1,0,0,1,0,1.42L1.71,24.51A1,1,0,0,1,.3,24.51Z"/><path class="cls-1" d="M.29.29h0a1,1,0,0,1,1.42,0L13,11.61A1,1,0,0,1,13,13h0a1,1,0,0,1-1.41,0L.29,1.71A1,1,0,0,1,.29.29Z"/></g></g></g></g></svg>