<svg xmlns="http://www.w3.org/2000/svg" viewBox="0 0 115.29 115.55"><defs><style>.cls-1{fill:#fff;}</style></defs><g id="레이어_2" data-name="레이어 2"><g id="Layer_1" data-name="Layer 1"><path class="cls-1" d="M114.42,98.26l-1.5,2.8a26.85,26.85,0,0,1-30.6,13.6,115.07,115.07,0,0,1-51.4-30,115.6,115.6,0,0,1-30-51.4,26.73,26.73,0,0,1,13.6-30.6c1.2-.6,2.3-1.2,3.4-1.8a7.32,7.32,0,0,1,9.6,2.5c3.7,5.6,8.9,13.7,15.2,23.3a7.43,7.43,0,0,1-1,9.3l-5.6,5.6a9.6,9.6,0,0,0-1.9,10.8,58.88,58.88,0,0,0,29.1,29.1,9.66,9.66,0,0,0,10.8-1.9l5.1-5.1a7.42,7.42,0,0,1,9.3-1L112,88.76A7.24,7.24,0,0,1,114.42,98.26Z"/></g></g></svg>