<svg xmlns="http://www.w3.org/2000/svg" viewBox="0 0 44 38"><defs><style>.cls-1{fill:none;stroke:#040102;stroke-linecap:round;stroke-linejoin:round;stroke-width:4px;}</style></defs><g id="Layer_2" data-name="Layer 2"><g id="Layer_1-2" data-name="Layer 1"><path class="cls-1" d="M38.83,5.33a11,11,0,0,0-8-3.33,10.41,10.41,0,0,0-6.29,2.07A12.63,12.63,0,0,0,23,5.45a1.35,1.35,0,0,1-2,0,12.63,12.63,0,0,0-1.56-1.38A10.41,10.41,0,0,0,13.17,2a11,11,0,0,0-8,3.33A11.65,11.65,0,0,0,2,13.49c0,3.23,1.26,6.19,4,9.31a83,83,0,0,0,9.93,8.9c1.37,1.12,2.93,2.39,4.55,3.74A2.42,2.42,0,0,0,22,36a2.46,2.46,0,0,0,1.55-.55c1.62-1.36,3.18-2.63,4.55-3.75A83,83,0,0,0,38,22.8c2.71-3.12,4-6.08,4-9.32A11.65,11.65,0,0,0,38.83,5.33Z"/></g></g></svg>